PathFileType	4	(X/Y/Z)	C:/Users/dbak576/Desktop/Duncan Bakke Modelling Files/H28s1/Static_H28s1.trc	
DataRate	CameraRate	NumFrames	NumMarkers	Units	OrigDataRate	OrigDataStartFrame	OrigNumFrames	
200.00	200.00	5	61	mm	200.00	348	187	
Frame#	Time	LFHD			RFHD			LBHD			RBHD			C7			T10			CLAV			STRN			RBack			LASI			RASI			LPSI			RPSI			RACR1			RUA1			RElbow			RElbowM			RFA1			RWRR			RWRU			RCAR			LACR1			LUA1			LElbow			LElbowM			LFA1			LWRR			LWRU			LCAR			RTH1			RTH3			RTH2			RTH4			RLFC			RMFC			RTB1			RTB3			RTB2			RTB4			RLMAL			RMMAL			RCAL			RMT1			RMT5			RToe			LTH1			LTH3			LTH2			LTH4			LLFC			LMFC			LTB1			LTB3			LTB2			LTB4			LLMAL			LMMAL			LCAL			LMT1			LMT5			LToe			
		X1	Y1	Z1	X2	Y2	Z2	X3	Y3	Z3	X4	Y4	Z4	X5	Y5	Z5	X6	Y6	Z6	X7	Y7	Z7	X8	Y8	Z8	X9	Y9	Z9	X10	Y10	Z10	X11	Y11	Z11	X12	Y12	Z12	X13	Y13	Z13	X14	Y14	Z14	X15	Y15	Z15	X16	Y16	Z16	X17	Y17	Z17	X18	Y18	Z18	X19	Y19	Z19	X20	Y20	Z20	X21	Y21	Z21	X22	Y22	Z22	X23	Y23	Z23	X24	Y24	Z24	X25	Y25	Z25	X26	Y26	Z26	X27	Y27	Z27	X28	Y28	Z28	X29	Y29	Z29	X30	Y30	Z30	X31	Y31	Z31	X32	Y32	Z32	X33	Y33	Z33	X34	Y34	Z34	X35	Y35	Z35	X36	Y36	Z36	X37	Y37	Z37	X38	Y38	Z38	X39	Y39	Z39	X40	Y40	Z40	X41	Y41	Z41	X42	Y42	Z42	X43	Y43	Z43	X44	Y44	Z44	X45	Y45	Z45	X46	Y46	Z46	X47	Y47	Z47	X48	Y48	Z48	X49	Y49	Z49	X50	Y50	Z50	X51	Y51	Z51	X52	Y52	Z52	X53	Y53	Z53	X54	Y54	Z54	X55	Y55	Z55	X56	Y56	Z56	X57	Y57	Z57	X58	Y58	Z58	X59	Y59	Z59	X60	Y60	Z60	X61	Y61	Z61	

24	0.115	-9.24188	-325.00092	1447.37378	86.25452	-341.96790	1434.79138	-50.00919	-455.07272	1381.08301	82.01892	-476.58984	1371.02344	13.33436	-510.68808	1277.37769	23.83637	-575.14337	1072.46912	12.78101	-362.56866	1207.64050	13.79135	-309.21060	1107.01379	123.42856	-551.56903	1149.53015	-155.25725	-374.39105	830.37317	164.23294	-342.73816	832.19702	-26.30946	-622.85071	863.33881	75.78313	-607.83496	854.43774	158.33997	-474.44254	1261.58289	283.08112	-462.20773	1225.36304	401.00430	-429.55231	1196.98633	392.25522	-367.36896	1146.85510	512.90063	-409.01761	1244.34888	603.25665	-357.34790	1263.20703	614.32538	-385.94376	1198.19397	678.49939	-351.13541	1231.95410	-141.30507	-473.92896	1263.93604	-277.01764	-437.77493	1231.10730	-380.32620	-392.81198	1190.66638	-360.48059	-341.73300	1154.49646	-477.00748	-387.04041	1229.28943	-576.44025	-335.29526	1246.95630	-585.23047	-354.78320	1187.44092	-645.18469	-326.07935	1214.16760	221.28551	-425.44980	652.21802	191.50955	-442.73849	482.00583	189.24515	-378.22174	565.60028	209.87762	-435.23471	566.61365	173.63400	-480.36661	399.12494	34.15906	-456.97141	386.48239	140.60081	-429.27353	294.61185	143.33656	-442.44101	123.73255	189.31287	-478.72678	212.77846	141.33162	-439.49539	208.16414	181.18033	-492.10660	62.74017	99.75800	-473.77307	63.06819	136.11575	-544.45624	31.29591	124.65820	-375.01572	26.84161	217.06366	-406.95056	25.31644	162.60063	-321.19543	28.92846	-214.96774	-449.81540	673.07861	-192.35081	-459.77939	501.06073	-185.63423	-399.43692	588.70679	-210.04776	-452.99887	587.23877	-173.67662	-446.35699	405.64709	-32.31431	-448.46738	398.29510	-128.48555	-425.18433	298.60162	-152.30084	-447.01782	130.48387	-193.84679	-466.53342	224.30206	-139.39528	-439.27066	212.15387	-188.59178	-502.84393	64.12148	-112.10491	-474.33228	65.26575	-145.42203	-541.22614	41.24994	-140.39345	-374.28278	32.00694	-224.68703	-420.30029	21.88183	-172.03850	-320.65997	26.27285 
25	0.120	-9.22644	-325.01651	1447.37878	86.27452	-341.97934	1434.76184	-50.06374	-454.96915	1381.10046	82.04420	-476.53992	1370.99500	13.34488	-510.68204	1277.38489	23.79028	-575.07800	1072.53894	12.81540	-362.60284	1207.62427	14.02631	-309.46167	1107.15259	123.41698	-551.54272	1149.57886	-155.25220	-374.35965	830.37476	164.22818	-342.71982	832.17627	-26.31976	-622.84479	863.28894	75.76183	-607.95642	854.45050	158.29044	-474.45984	1261.56873	283.10266	-462.21939	1225.35730	401.18024	-429.51596	1197.05347	392.24631	-367.37827	1146.88220	512.92578	-408.91119	1244.31616	603.28040	-357.34033	1263.24536	614.28925	-385.85474	1198.17188	678.55670	-351.08203	1231.99023	-141.29192	-473.93280	1263.94312	-277.03448	-437.78247	1231.09729	-380.36008	-392.81931	1190.78198	-360.51285	-341.72543	1154.57446	-477.01300	-387.06830	1229.34875	-576.51929	-335.34488	1247.09021	-585.23444	-354.73663	1187.52795	-645.15674	-326.01907	1214.27319	221.28650	-425.45047	652.21979	191.51257	-442.77835	482.04831	189.24696	-378.25809	565.59802	209.89888	-435.21005	566.60480	173.63710	-480.37085	399.12610	34.13977	-457.05167	386.50351	140.60622	-429.28415	294.61038	143.32967	-442.42960	123.72880	189.30049	-478.71085	212.77632	141.30865	-439.48520	208.18611	181.15146	-492.11453	62.77821	99.74639	-473.76398	63.05999	136.11798	-544.44550	31.30297	124.66693	-375.26212	26.90075	216.85730	-406.85471	25.29953	162.64143	-321.19046	28.92030	-214.98077	-449.85175	673.08258	-192.33792	-459.77872	501.05634	-185.63063	-399.43524	588.70319	-210.04070	-453.02090	587.23120	-173.67323	-446.34830	405.64349	-32.32769	-448.47971	398.31940	-128.50294	-425.19150	298.59140	-152.34590	-446.96936	130.39108	-193.84146	-466.54703	224.29362	-139.41156	-439.26694	212.16029	-188.58565	-502.82532	64.12856	-112.23355	-474.23285	65.18625	-145.42993	-541.23083	41.23183	-140.39879	-374.27621	32.01620	-224.60255	-420.29102	21.78716	-172.06381	-320.68927	26.27094 
26	0.125	-9.24318	-325.08020	1447.35889	86.31308	-341.96692	1434.77429	-50.11330	-454.93481	1381.12219	82.06281	-476.47818	1370.95874	13.35760	-510.67966	1277.39209	23.76867	-575.04517	1072.57117	12.83595	-362.60385	1207.63574	14.03812	-309.88260	1107.31274	123.41786	-551.52875	1149.64917	-155.24023	-374.33447	830.36121	164.21469	-342.70419	832.17303	-26.31099	-622.79950	863.20996	75.68624	-608.12616	854.47882	158.24597	-474.45273	1261.52637	283.11392	-462.23013	1225.35693	401.34030	-429.49783	1197.11951	392.23447	-367.37042	1146.89331	512.96826	-408.83197	1244.32361	603.29852	-357.33325	1263.29517	614.27075	-385.78021	1198.15967	678.61792	-351.00586	1232.02246	-141.28781	-473.94644	1263.94531	-277.04333	-437.78943	1231.11023	-380.39590	-392.85107	1190.84302	-360.51770	-341.69904	1154.61035	-477.07410	-387.13071	1229.50513	-576.57343	-335.38940	1247.17578	-585.25635	-354.71246	1187.57288	-645.14355	-325.96091	1214.39624	221.29843	-425.46088	652.21014	191.46245	-442.77277	482.08701	189.24329	-378.28046	565.60260	209.92766	-435.19254	566.59241	173.64606	-480.37390	399.12177	34.13198	-457.10165	386.51196	140.60970	-429.29425	294.61014	143.32092	-442.41083	123.72778	189.29724	-478.69220	212.77531	141.29050	-439.47784	208.20755	181.05424	-492.11533	62.86228	99.73737	-473.75775	63.05560	136.10432	-544.45508	31.32357	124.80225	-375.40662	26.78808	216.50636	-406.74066	25.23065	162.68736	-321.18457	28.88955	-214.99515	-449.85544	673.10052	-192.32693	-459.77740	501.05460	-185.63620	-399.44125	588.68738	-210.02383	-453.03253	587.22144	-173.67209	-446.34433	405.63657	-32.33806	-448.49466	398.34586	-128.51265	-425.19031	298.59201	-152.35677	-446.93961	130.32675	-193.83809	-466.54761	224.28824	-139.42281	-439.26987	212.17302	-188.58099	-502.80563	64.13889	-112.35957	-474.13852	65.10983	-145.53514	-541.18365	41.21579	-140.40393	-374.27039	32.02767	-224.44710	-420.28625	21.61555	-172.05917	-320.72018	26.27830 
27	0.130	-9.28702	-325.13620	1447.33801	86.30971	-341.96747	1434.77539	-50.17471	-454.93210	1381.14087	82.06643	-476.42465	1370.94287	13.37031	-510.67905	1277.40247	23.75196	-575.02332	1072.60449	12.86426	-362.63873	1207.61230	13.68949	-310.51752	1107.59546	123.43116	-551.52606	1149.71631	-155.23495	-374.31662	830.35364	164.19946	-342.69162	832.17725	-26.28345	-622.72357	863.13263	75.73544	-608.02332	854.52631	158.20894	-474.44446	1261.49097	283.09970	-462.28217	1225.35193	401.48560	-429.54755	1197.22632	392.20850	-367.36176	1146.93665	513.00726	-408.85504	1244.46484	603.31927	-357.30731	1263.32446	614.25525	-385.71936	1198.15649	678.68506	-350.91245	1232.04285	-141.28522	-473.96237	1263.94226	-277.03687	-437.80331	1231.12793	-380.42471	-392.90927	1190.84326	-360.52234	-341.66913	1154.65405	-477.17365	-387.21356	1229.67090	-576.57947	-335.43356	1247.22290	-585.27252	-354.70953	1187.62280	-645.14594	-325.92474	1214.52234	221.31021	-425.47437	652.20044	191.38405	-442.72665	482.11539	189.24152	-378.29077	565.61224	209.97571	-435.19391	566.56287	173.65015	-480.37616	399.11899	34.13370	-457.11954	386.50571	140.60297	-429.29883	294.60904	143.32135	-442.40472	123.72563	189.29974	-478.66904	212.78015	141.27388	-439.46878	208.22112	180.93393	-492.11447	62.96021	99.73376	-473.75528	63.05643	136.07716	-544.48059	31.35259	125.00869	-375.42517	26.58639	216.45029	-406.74136	25.15070	162.72304	-321.17834	28.86619	-214.99976	-449.85904	673.10779	-192.32436	-459.79114	501.05411	-185.64793	-399.46750	588.66895	-209.99765	-453.03284	587.20868	-173.66782	-446.36444	405.62775	-32.34688	-448.51270	398.37390	-128.52298	-425.18494	298.59836	-152.33623	-446.92435	130.30309	-193.83853	-466.54633	224.28590	-139.43550	-439.27850	212.18747	-188.57216	-502.79288	64.13226	-112.47665	-474.05240	65.03909	-145.64012	-541.12805	41.20688	-140.40898	-374.26443	32.04383	-224.36757	-420.30829	21.51225	-172.05898	-320.74002	26.28151 
28	0.135	-9.32849	-325.17645	1447.32043	86.28139	-341.96732	1434.75378	-50.20036	-454.94708	1381.14722	82.07327	-476.37146	1370.92700	13.38171	-510.68091	1277.40991	23.81603	-575.08557	1072.53931	12.89673	-362.69107	1207.58337	13.00630	-311.24774	1107.91650	123.46535	-551.52850	1149.72461	-155.25784	-374.31854	830.37329	164.18237	-342.68448	832.18439	-26.23938	-622.67883	863.14447	75.86830	-607.75574	854.54572	158.18802	-474.42273	1261.45471	283.06531	-462.34021	1225.34436	401.54526	-429.55731	1197.25208	392.18341	-367.34698	1146.98560	513.05316	-408.87573	1244.57751	603.32916	-357.28622	1263.34521	614.24408	-385.64001	1198.15710	678.75928	-350.81033	1232.04260	-141.28351	-473.97946	1263.95789	-277.02078	-437.83414	1231.15894	-380.44952	-392.95813	1190.81750	-360.52838	-341.63611	1154.71082	-477.30481	-387.27505	1229.83716	-576.56494	-335.45724	1247.24377	-585.29205	-354.71127	1187.67126	-645.18237	-325.92987	1214.57788	221.32201	-425.48840	652.18793	191.30598	-442.65897	482.11798	189.23590	-378.28775	565.62506	210.02760	-435.20605	566.52930	173.64932	-480.37607	399.12558	34.13898	-457.11041	386.50034	140.59415	-429.29916	294.60959	143.33643	-442.40787	123.71915	189.30522	-478.64221	212.77855	141.26743	-439.46152	208.23439	180.86417	-492.12289	63.03672	99.73203	-473.75674	63.06090	136.02931	-544.53204	31.39996	124.90009	-375.29883	26.78313	216.66103	-406.80362	25.13189	162.73474	-321.16525	28.86695	-214.97562	-449.83359	673.10376	-192.32799	-459.79474	501.05679	-185.65877	-399.50064	588.65692	-209.96497	-453.01822	587.20465	-173.67123	-446.41809	405.60532	-32.35384	-448.53198	398.39816	-128.53065	-425.17160	298.60254	-152.29633	-446.92514	130.30856	-193.84869	-466.55899	224.28059	-139.44379	-439.28638	212.19907	-188.56815	-502.78445	64.15137	-112.58227	-473.97867	64.97790	-145.75340	-541.07715	41.21440	-140.41522	-374.26694	32.04804	-224.24673	-420.33115	21.35088	-172.07291	-320.74759	26.28672 
